<?xml version="1.0" encoding="utf-8"?>
<!-- Generator: Adobe Illustrator 16.0.0, SVG Export Plug-In . SVG Version: 6.00 Build 0)  -->
<!DOCTYPE svg PUBLIC "-//W3C//DTD SVG 1.1//EN" "http://www.w3.org/Graphics/SVG/1.1/DTD/svg11.dtd">
<svg version="1.1" id="Layer_1" xmlns="http://www.w3.org/2000/svg" xmlns:xlink="http://www.w3.org/1999/xlink" x="0px" y="0px"
	 width="80px" height="80px" viewBox="0 0 80 80" enable-background="new 0 0 80 80" xml:space="preserve">
<g id="Layer_1_1_">
	<path fill="#FFCE06" d="M40,80c10.827,0,20.643-4.309,27.844-11.296H12.156C19.358,75.691,29.173,80,40,80z"/>
	<path fill="#FFFFFF" d="M80,40C80,17.909,62.092,0,40,0C17.909,0,0,17.909,0,40c0,11.266,4.663,21.436,12.156,28.704h55.688
		C75.337,61.436,80,51.266,80,40z"/>
	<g>
		<path fill="#FFCE06" d="M17.599,23.547v-2.3c0-0.8,0.601-1.45,1.351-1.55c6.95-1,14.001-1.5,21.051-1.5
			c7.051,0,14.103,0.5,21.002,1.5c0.8,0.1,1.399,0.75,1.399,1.55v2.3c-0.149,0.55-0.549,1.5-1.75,2.65L43.602,39.099
			c-0.951,0.75-2.25,1.1-3.602,1.1c-1.35,0-2.65-0.35-3.6-1.1L19.349,26.197C18.148,25.047,17.749,24.098,17.599,23.547z
			 M62.4,31.249v22.304c0,0.801-0.601,1.451-1.398,1.551c-6.9,1-14.001,1.5-21.002,1.5c-7,0-14.101-0.5-21.051-1.5
			c-0.75-0.1-1.351-0.75-1.351-1.551V31.249L33.45,43.402c1.85,1.398,4.2,2,6.55,2c2.352,0,4.7-0.602,6.551-2L62.4,31.249z"/>
	</g>
</g>
</svg>
