<?xml version="1.0" encoding="utf-8"?>
<!-- Generator: Adobe Illustrator 16.0.0, SVG Export Plug-In . SVG Version: 6.00 Build 0)  -->
<!DOCTYPE svg PUBLIC "-//W3C//DTD SVG 1.1//EN" "http://www.w3.org/Graphics/SVG/1.1/DTD/svg11.dtd">
<svg version="1.1" id="Layer_1" xmlns="http://www.w3.org/2000/svg" xmlns:xlink="http://www.w3.org/1999/xlink" x="0px" y="0px"
	 width="34.016px" height="34.016px" viewBox="0 0 34.016 34.016" enable-background="new 0 0 34.016 34.016" xml:space="preserve">
<path fill="#517CBE" d="M17.008,34.016c9.393,0,17.008-7.614,17.008-17.008C34.016,7.615,26.401,0,17.008,0
	C7.615,0,0,7.615,0,17.008C0,26.401,7.615,34.016,17.008,34.016"/>
<path fill="#FFFFFF" d="M12.905,14.128h1.758v-1.709c0-0.753,0.019-1.916,0.566-2.635c0.577-0.762,1.368-1.28,2.73-1.28
	c2.218,0,3.152,0.316,3.152,0.316l-0.439,2.605c0,0-0.733-0.212-1.417-0.212c-0.685,0-1.296,0.245-1.296,0.929v1.986h2.804
	l-0.196,2.544h-2.607v8.839h-3.296v-8.839h-1.758V14.128z"/>
</svg>
