<?xml version="1.0" encoding="utf-8"?>
<!-- Generator: Adobe Illustrator 16.0.0, SVG Export Plug-In . SVG Version: 6.00 Build 0)  -->
<!DOCTYPE svg PUBLIC "-//W3C//DTD SVG 1.1//EN" "http://www.w3.org/Graphics/SVG/1.1/DTD/svg11.dtd">
<svg version="1.1" id="Layer_1" xmlns="http://www.w3.org/2000/svg" xmlns:xlink="http://www.w3.org/1999/xlink" x="0px" y="0px"
	 width="80px" height="80px" viewBox="0 0 80 80" enable-background="new 0 0 80 80" xml:space="preserve">
<path fill="#A0619E" d="M40,80c10.827,0,20.643-4.309,27.844-11.296H12.156C19.358,75.691,29.173,80,40,80z"/>
<path fill="#CDB89D" d="M80,40C80,17.909,62.092,0,40,0C17.909,0,0,17.909,0,40c0,11.265,4.663,21.435,12.156,28.704h55.688
	C75.337,61.435,80,51.265,80,40z"/>
<g>
	<path fill="#FFFAF5" d="M56.352,60.45c-3.351,0.4-8.601,0.8-16.352,0.8c-15.551,0-21.051-1.6-21.251-1.649
		c-0.8-0.25-1.3-1.051-1.1-1.9c1-4.7,3.601-7.2,7.151-9.451c0.95-0.6,2.2-1.1,3.55-1.649c2.4-0.95,5.15-2.051,5.75-3.9
		c0.4-1.2-0.1-2.851-1.45-4.951c-4.2-6.7-4.95-12.5-2.25-17.151c2.1-3.601,5.7-5.75,9.601-5.75c3.95,0,7.501,2.15,9.601,5.75
		c2.7,4.65,1.95,10.451-2.2,17.151c-1.35,2.1-1.85,3.75-1.5,4.951c0.601,1.85,3.351,2.95,5.801,3.9c1.3,0.55,2.5,1.05,3.5,1.649
		c3.55,2.251,6.15,4.751,7.15,9.451c0.2,0.85-0.3,1.65-1.1,1.9C61.151,59.601,59.701,60.05,56.352,60.45z"/>
</g>
</svg>
