<?xml version="1.0" encoding="utf-8"?>
<!-- Generator: Adobe Illustrator 16.0.0, SVG Export Plug-In . SVG Version: 6.00 Build 0)  -->
<!DOCTYPE svg PUBLIC "-//W3C//DTD SVG 1.1//EN" "http://www.w3.org/Graphics/SVG/1.1/DTD/svg11.dtd">
<svg version="1.1" id="Layer_1" xmlns="http://www.w3.org/2000/svg" xmlns:xlink="http://www.w3.org/1999/xlink" x="0px" y="0px"
	 width="115.195px" height="79.441px" viewBox="-18.366 2.176 115.195 79.441"
	 enable-background="new -18.366 2.176 115.195 79.441" xml:space="preserve">
<g>
	<path fill="#693A77" d="M45.19,29.975c0-7.943,0.375-15.515,1.737-22.964c0.247-1.736,1.621-3.099,3.23-3.346
		c6.951-0.995,13.895-1.49,20.86-1.49c6.943,0,13.889,0.495,20.729,1.49c1.735,0.247,3.095,1.619,3.473,3.346
		c1.124,6.33,1.609,12.784,1.609,19.371c0,6.207-0.609,12.537-1.609,18.746c-0.359,1.612-1.737,2.979-3.473,3.222
		c-5.966,0.866-11.922,1.244-17.998,1.367c2.1,5.342,6.076,8.562,12.905,12.035c1.978,0.995,2.852,3.478,1.861,5.462l-5.827,12.167
		c-0.612,1.374-2.117,2.236-3.483,2.236c-0.485,0-1.115-0.129-1.483-0.245C54.13,70.823,45.19,51.83,45.19,29.975z M-18.366,29.975
		c0-7.943,0.373-15.515,1.736-22.964c0.247-1.736,1.61-3.099,3.23-3.346c6.95-0.995,13.895-1.49,20.854-1.49
		c6.955,0,13.9,0.495,20.729,1.49c1.741,0.247,3.104,1.619,3.478,3.346c1.125,6.33,1.62,12.664,1.62,18.993
		c0,6.329-0.495,12.784-1.62,19.111c-0.365,1.619-1.736,2.979-3.478,3.229c-5.956,0.859-11.916,1.241-17.993,1.36
		c2.105,5.342,6.077,8.562,12.9,12.038c1.988,0.996,2.861,3.478,1.866,5.462l-5.829,12.168c-0.616,1.373-2.104,2.236-3.477,2.236
		c-0.496,0-1.126-0.133-1.49-0.249C-9.427,70.823-18.366,51.83-18.366,29.975z"/>
</g>
</svg>
