<?xml version="1.0" encoding="utf-8"?>
<!-- Generator: Adobe Illustrator 16.0.0, SVG Export Plug-In . SVG Version: 6.00 Build 0)  -->
<!DOCTYPE svg PUBLIC "-//W3C//DTD SVG 1.1//EN" "http://www.w3.org/Graphics/SVG/1.1/DTD/svg11.dtd">
<svg version="1.1" id="Layer_1" xmlns="http://www.w3.org/2000/svg" xmlns:xlink="http://www.w3.org/1999/xlink" x="0px" y="0px"
	 width="34.016px" height="34.016px" viewBox="0 0 34.016 34.016" enable-background="new 0 0 34.016 34.016" xml:space="preserve">
<path fill="#1187C9" d="M17.008,34.016c9.395,0,17.008-7.615,17.008-17.008C34.016,7.615,26.402,0,17.008,0
	C7.614,0,0,7.615,0,17.007C0,26.4,7.614,34.016,17.008,34.016"/>
<path fill="#FFFFFF" d="M12.248,24.121H8.933V13.512h3.315V24.121z M10.505,12.185h-0.024c-1.2,0-1.978-0.811-1.978-1.838
	c0-1.048,0.801-1.842,2.025-1.842c1.223,0,1.975,0.792,1.999,1.839C12.528,11.371,11.751,12.185,10.505,12.185z M25.512,24.121
	h-3.76v-5.49c0-1.437-0.587-2.417-1.881-2.417c-0.988,0-1.538,0.662-1.795,1.3c-0.096,0.229-0.08,0.547-0.08,0.868v5.74h-3.725
	c0,0,0.048-9.725,0-10.609h3.725v1.665c0.22-0.728,1.409-1.767,3.309-1.767c2.355,0,4.207,1.526,4.207,4.812V24.121z"/>
</svg>
