<?xml version="1.0" encoding="utf-8"?>
<!-- Generator: Adobe Illustrator 16.0.0, SVG Export Plug-In . SVG Version: 6.00 Build 0)  -->
<!DOCTYPE svg PUBLIC "-//W3C//DTD SVG 1.1//EN" "http://www.w3.org/Graphics/SVG/1.1/DTD/svg11.dtd">
<svg version="1.1" id="Layer_1" xmlns="http://www.w3.org/2000/svg" xmlns:xlink="http://www.w3.org/1999/xlink" x="0px" y="0px"
	 width="80px" height="80px" viewBox="0 0 80 80" enable-background="new 0 0 80 80" xml:space="preserve">
<path fill="#8F1E5A" d="M40,80c10.827,0,20.643-4.309,27.844-11.296H12.156C19.358,75.691,29.173,80,40,80z"/>
<path fill="#CDB89D" d="M80,40C80,17.909,62.092,0,40,0C17.909,0,0,17.909,0,40c0,11.265,4.663,21.435,12.156,28.704h55.688
	C75.337,61.435,80,51.265,80,40z"/>
<g>
	<path fill="#FFFAF5" d="M57.602,38.449c0,6.35-0.201,12.551-0.551,18.601c-0.15,2.3-1.9,4.2-4.15,4.5c-4.3,0.55-8.6,0.7-12.9,0.7
		c-4.3,0-8.65-0.15-12.951-0.7c-2.25-0.3-4-2.2-4.101-4.5c-0.35-5.95-0.55-12.351-0.55-18.801c0-6.25,0.15-12.601,0.55-18.651
		c0.1-2.3,1.851-4.15,4.101-4.5c4.3-0.55,8.65-0.85,12.951-0.85c4.301,0,8.601,0.3,12.9,0.85c2.25,0.35,4,2.2,4.15,4.5
		C57.4,25.898,57.602,32.198,57.602,38.449z M51.4,35.698c-0.05-4.3-0.25-8.65-0.65-13.951c-0.049-0.4-0.299-0.7-0.699-0.75
		c-3.5-0.4-6.75-0.6-10.051-0.6c-3.3,0-6.601,0.2-10.051,0.6c-0.4,0.05-0.7,0.35-0.75,0.75c-0.35,5.2-0.55,10.051-0.55,15.001
		c0,3.9,0.1,7.8,0.35,12c0.05,0.4,0.35,0.7,0.75,0.7h20.5c0.4,0,0.701-0.3,0.701-0.7C51.25,43.849,51.4,39.749,51.4,35.698z
		 M43.35,55.85c0-1.801-1.549-3.25-3.35-3.25c-1.85,0-3.25,1.449-3.25,3.25c0,1.85,1.4,3.35,3.25,3.35
		C41.801,59.199,43.35,57.699,43.35,55.85z"/>
</g>
</svg>
