<?xml version="1.0" encoding="utf-8"?>
<!-- Generator: Adobe Illustrator 16.0.0, SVG Export Plug-In . SVG Version: 6.00 Build 0)  -->
<!DOCTYPE svg PUBLIC "-//W3C//DTD SVG 1.1//EN" "http://www.w3.org/Graphics/SVG/1.1/DTD/svg11.dtd">
<svg version="1.1" id="Layer_1" xmlns="http://www.w3.org/2000/svg" xmlns:xlink="http://www.w3.org/1999/xlink" x="0px" y="0px"
	 width="115.195px" height="79.441px" viewBox="-18.366 2.176 115.195 79.441"
	 enable-background="new -18.366 2.176 115.195 79.441" xml:space="preserve">
<g>
	<path fill="#693A77" d="M0.741,81.372c-0.368,0.116-0.998,0.245-1.483,0.245c-1.366,0-2.871-0.862-3.483-2.236l-5.827-12.167
		c-0.99-1.984-0.116-4.467,1.861-5.462c6.829-3.474,10.806-6.693,12.905-12.035c-6.076-0.123-12.032-0.501-17.998-1.367
		c-1.735-0.242-3.113-1.609-3.473-3.222c-1-6.209-1.609-12.539-1.609-18.746c0-6.587,0.485-13.042,1.609-19.371
		c0.378-1.727,1.737-3.099,3.473-3.346c6.84-0.995,13.785-1.49,20.729-1.49c6.966,0,13.909,0.495,20.86,1.49
		c1.609,0.247,2.983,1.609,3.23,3.346c1.362,7.449,1.737,15.021,1.737,22.964C33.272,51.83,24.333,70.823,0.741,81.372z
		 M64.301,81.359c-0.363,0.116-0.994,0.249-1.49,0.249c-1.372,0-2.86-0.863-3.477-2.236l-5.828-12.168
		c-0.995-1.984-0.123-4.466,1.865-5.462c6.824-3.477,10.796-6.696,12.9-12.038c-6.076-0.119-12.036-0.501-17.992-1.36
		c-1.741-0.249-3.113-1.609-3.478-3.229c-1.125-6.327-1.62-12.782-1.62-19.111c0-6.33,0.495-12.664,1.62-18.993
		c0.374-1.727,1.736-3.099,3.478-3.346c6.828-0.995,13.774-1.49,20.729-1.49c6.96,0,13.905,0.495,20.855,1.49
		c1.619,0.247,2.982,1.609,3.229,3.346c1.363,7.449,1.736,15.021,1.736,22.964C96.829,51.83,87.891,70.823,64.301,81.359z"/>
</g>
</svg>
