<?xml version="1.0" encoding="utf-8"?>
<!-- Generator: Adobe Illustrator 16.0.0, SVG Export Plug-In . SVG Version: 6.00 Build 0)  -->
<!DOCTYPE svg PUBLIC "-//W3C//DTD SVG 1.1//EN" "http://www.w3.org/Graphics/SVG/1.1/DTD/svg11.dtd">
<svg version="1.1" id="Layer_1" xmlns="http://www.w3.org/2000/svg" xmlns:xlink="http://www.w3.org/1999/xlink" x="0px" y="0px"
	 width="80px" height="80px" viewBox="0 0 80 80" enable-background="new 0 0 80 80" xml:space="preserve">
<path fill="#68276F" d="M40,80c10.827,0,20.643-4.309,27.844-11.296H12.156C19.358,75.691,29.173,80,40,80z"/>
<path fill="#CDB89D" d="M80,40C80,17.909,62.092,0,40,0C17.909,0,0,17.909,0,40c0,11.265,4.663,21.435,12.156,28.704h55.688
	C75.337,61.435,80,51.265,80,40z"/>
<g>
	<path fill="#FFFAF5" d="M64.003,20.147V47.35c0,1.55-1.101,2.85-2.65,3.15c-0.3,0.049-6.4,1.1-14.95,1.5v3.8l10.051,2.8
		c0.75,0.25,1.25,1,1.149,1.801c-0.149,0.75-0.8,1.35-1.601,1.35H24c-0.8,0-1.45-0.6-1.6-1.35c-0.1-0.801,0.4-1.551,1.15-1.801
		l10.051-2.8V52c-8.55-0.4-14.651-1.451-14.951-1.5C17.1,50.199,16,48.899,16,47.35V20.147c0-1.55,1.15-2.9,2.65-3.15
		c0.4-0.05,10-1.65,21.351-1.65c11.35,0,20.901,1.6,21.301,1.65C62.854,17.247,64.003,18.597,64.003,20.147z M57.603,44.749V22.548
		c-3.55-0.45-10.251-1.15-17.601-1.15c-7.351,0-14.051,0.7-17.601,1.15v22.201c3.45,0.45,10.101,1.149,17.601,1.2
		C47.502,45.898,54.152,45.199,57.603,44.749z M41.102,40.849c-0.5-0.15-2.8-1.75-5.101-3.6l-1.25,3.1c-0.15,0.35-0.5,0.6-0.85,0.6
		h-0.05c-0.35,0-0.7-0.2-0.85-0.5c-0.15-0.3-3.55-6.9-4.2-12.851c-0.05-0.25,0.05-0.55,0.3-0.75c0.2-0.25,0.5-0.35,0.8-0.3
		c6.1,0.8,12.5,4.05,12.751,4.2c0.35,0.2,0.549,0.55,0.549,0.9c0,0.4-0.25,0.7-0.6,0.85l-3.2,1.35c1.8,2.25,3.45,4.65,3.65,5.05
		c0.3,0.65,0.149,1.1-0.351,1.6S41.852,41.049,41.102,40.849z"/>
</g>
</svg>
